<svg xmlns="http://www.w3.org/2000/svg" width="1484" height="1020" style="cursor: move;"><g transform="translate(0,0) scale(1)"><path class="link" marker-end="" d="M692,354, 692,491" style="stroke-width: 0.5; stroke-opacity: 1; stroke: rgb(80, 80, 80);"></path><path class="link" marker-end="" d="M692,354, 732,491" style="stroke-width: 0.5; stroke-opacity: 1; stroke: rgb(80, 80, 80);"></path><path class="link" marker-end="" d="M692,354, 772,491" style="stroke-width: 0.5; stroke-opacity: 1; stroke: rgb(80, 80, 80);"></path><path class="link" marker-end="" d="M692,354, 812,491" style="stroke-width: 0.5; stroke-opacity: 1; stroke: rgb(80, 80, 80);"></path><path class="link" marker-end="" d="M732,354, 692,491" style="stroke-width: 0.5; stroke-opacity: 1; stroke: rgb(80, 80, 80);"></path><path class="link" marker-end="" d="M732,354, 732,491" style="stroke-width: 0.5; stroke-opacity: 1; stroke: rgb(80, 80, 80);"></path><path class="link" marker-end="" d="M732,354, 772,491" style="stroke-width: 0.5; stroke-opacity: 1; stroke: rgb(80, 80, 80);"></path><path class="link" marker-end="" d="M732,354, 812,491" style="stroke-width: 0.5; stroke-opacity: 1; stroke: rgb(80, 80, 80);"></path><path class="link" marker-end="" d="M652,491, 592,628" style="stroke-width: 0.5; stroke-opacity: 1; stroke: rgb(80, 80, 80);"></path><path class="link" marker-end="" d="M652,491, 632,628" style="stroke-width: 0.5; stroke-opacity: 1; stroke: rgb(80, 80, 80);"></path><path class="link" marker-end="" d="M652,491, 672,628" style="stroke-width: 0.5; stroke-opacity: 1; stroke: rgb(80, 80, 80);"></path><path class="link" marker-end="" d="M652,491, 712,628" style="stroke-width: 0.5; stroke-opacity: 1; stroke: rgb(80, 80, 80);"></path><path class="link" marker-end="" d="M652,491, 752,628" style="stroke-width: 0.5; stroke-opacity: 1; stroke: rgb(80, 80, 80);"></path><path class="link" marker-end="" d="M652,491, 792,628" style="stroke-width: 0.5; stroke-opacity: 1; stroke: rgb(80, 80, 80);"></path><path class="link" marker-end="" d="M692,491, 592,628" style="stroke-width: 0.5; stroke-opacity: 1; stroke: rgb(80, 80, 80);"></path><path class="link" marker-end="" d="M692,491, 632,628" style="stroke-width: 0.5; stroke-opacity: 1; stroke: rgb(80, 80, 80);"></path><path class="link" marker-end="" d="M692,491, 672,628" style="stroke-width: 0.5; stroke-opacity: 1; stroke: rgb(80, 80, 80);"></path><path class="link" marker-end="" d="M692,491, 712,628" style="stroke-width: 0.5; stroke-opacity: 1; stroke: rgb(80, 80, 80);"></path><path class="link" marker-end="" d="M692,491, 752,628" style="stroke-width: 0.5; stroke-opacity: 1; stroke: rgb(80, 80, 80);"></path><path class="link" marker-end="" d="M692,491, 792,628" style="stroke-width: 0.5; stroke-opacity: 1; stroke: rgb(80, 80, 80);"></path><path class="link" marker-end="" d="M732,491, 592,628" style="stroke-width: 0.5; stroke-opacity: 1; stroke: rgb(80, 80, 80);"></path><path class="link" marker-end="" d="M732,491, 632,628" style="stroke-width: 0.5; stroke-opacity: 1; stroke: rgb(80, 80, 80);"></path><path class="link" marker-end="" d="M732,491, 672,628" style="stroke-width: 0.5; stroke-opacity: 1; stroke: rgb(80, 80, 80);"></path><path class="link" marker-end="" d="M732,491, 712,628" style="stroke-width: 0.5; stroke-opacity: 1; stroke: rgb(80, 80, 80);"></path><path class="link" marker-end="" d="M732,491, 752,628" style="stroke-width: 0.5; stroke-opacity: 1; stroke: rgb(80, 80, 80);"></path><path class="link" marker-end="" d="M732,491, 792,628" style="stroke-width: 0.5; stroke-opacity: 1; stroke: rgb(80, 80, 80);"></path><path class="link" marker-end="" d="M772,491, 592,628" style="stroke-width: 0.5; stroke-opacity: 1; stroke: rgb(80, 80, 80);"></path><path class="link" marker-end="" d="M772,491, 632,628" style="stroke-width: 0.5; stroke-opacity: 1; stroke: rgb(80, 80, 80);"></path><path class="link" marker-end="" d="M772,491, 672,628" style="stroke-width: 0.5; stroke-opacity: 1; stroke: rgb(80, 80, 80);"></path><path class="link" marker-end="" d="M772,491, 712,628" style="stroke-width: 0.5; stroke-opacity: 1; stroke: rgb(80, 80, 80);"></path><path class="link" marker-end="" d="M772,491, 752,628" style="stroke-width: 0.5; stroke-opacity: 1; stroke: rgb(80, 80, 80);"></path><path class="link" marker-end="" d="M772,491, 792,628" style="stroke-width: 0.5; stroke-opacity: 1; stroke: rgb(80, 80, 80);"></path><path class="link" marker-end="" d="M812,491, 592,628" style="stroke-width: 0.5; stroke-opacity: 1; stroke: rgb(80, 80, 80);"></path><path class="link" marker-end="" d="M812,491, 632,628" style="stroke-width: 0.5; stroke-opacity: 1; stroke: rgb(80, 80, 80);"></path><path class="link" marker-end="" d="M812,491, 672,628" style="stroke-width: 0.5; stroke-opacity: 1; stroke: rgb(80, 80, 80);"></path><path class="link" marker-end="" d="M812,491, 712,628" style="stroke-width: 0.5; stroke-opacity: 1; stroke: rgb(80, 80, 80);"></path><path class="link" marker-end="" d="M812,491, 752,628" style="stroke-width: 0.5; stroke-opacity: 1; stroke: rgb(80, 80, 80);"></path><path class="link" marker-end="" d="M812,491, 792,628" style="stroke-width: 0.5; stroke-opacity: 1; stroke: rgb(80, 80, 80);"></path><path class="link" marker-end="" d="M552,628, 612,765" style="stroke-width: 0.5; stroke-opacity: 1; stroke: rgb(80, 80, 80);"></path><path class="link" marker-end="" d="M552,628, 652,765" style="stroke-width: 0.5; stroke-opacity: 1; stroke: rgb(80, 80, 80);"></path><path class="link" marker-end="" d="M552,628, 692,765" style="stroke-width: 0.5; stroke-opacity: 1; stroke: rgb(80, 80, 80);"></path><path class="link" marker-end="" d="M552,628, 732,765" style="stroke-width: 0.5; stroke-opacity: 1; stroke: rgb(80, 80, 80);"></path><path class="link" marker-end="" d="M552,628, 772,765" style="stroke-width: 0.5; stroke-opacity: 1; stroke: rgb(80, 80, 80);"></path><path class="link" marker-end="" d="M552,628, 812,765" style="stroke-width: 0.5; stroke-opacity: 1; stroke: rgb(80, 80, 80);"></path><path class="link" marker-end="" d="M552,628, 852,765" style="stroke-width: 0.5; stroke-opacity: 1; stroke: rgb(80, 80, 80);"></path><path class="link" marker-end="" d="M592,628, 612,765" style="stroke-width: 0.5; stroke-opacity: 1; stroke: rgb(80, 80, 80);"></path><path class="link" marker-end="" d="M592,628, 652,765" style="stroke-width: 0.5; stroke-opacity: 1; stroke: rgb(80, 80, 80);"></path><path class="link" marker-end="" d="M592,628, 692,765" style="stroke-width: 0.5; stroke-opacity: 1; stroke: rgb(80, 80, 80);"></path><path class="link" marker-end="" d="M592,628, 732,765" style="stroke-width: 0.5; stroke-opacity: 1; stroke: rgb(80, 80, 80);"></path><path class="link" marker-end="" d="M592,628, 772,765" style="stroke-width: 0.5; stroke-opacity: 1; stroke: rgb(80, 80, 80);"></path><path class="link" marker-end="" d="M592,628, 812,765" style="stroke-width: 0.5; stroke-opacity: 1; stroke: rgb(80, 80, 80);"></path><path class="link" marker-end="" d="M592,628, 852,765" style="stroke-width: 0.5; stroke-opacity: 1; stroke: rgb(80, 80, 80);"></path><path class="link" marker-end="" d="M632,628, 612,765" style="stroke-width: 0.5; stroke-opacity: 1; stroke: rgb(80, 80, 80);"></path><path class="link" marker-end="" d="M632,628, 652,765" style="stroke-width: 0.5; stroke-opacity: 1; stroke: rgb(80, 80, 80);"></path><path class="link" marker-end="" d="M632,628, 692,765" style="stroke-width: 0.5; stroke-opacity: 1; stroke: rgb(80, 80, 80);"></path><path class="link" marker-end="" d="M632,628, 732,765" style="stroke-width: 0.5; stroke-opacity: 1; stroke: rgb(80, 80, 80);"></path><path class="link" marker-end="" d="M632,628, 772,765" style="stroke-width: 0.5; stroke-opacity: 1; stroke: rgb(80, 80, 80);"></path><path class="link" marker-end="" d="M632,628, 812,765" style="stroke-width: 0.5; stroke-opacity: 1; stroke: rgb(80, 80, 80);"></path><path class="link" marker-end="" d="M632,628, 852,765" style="stroke-width: 0.5; stroke-opacity: 1; stroke: rgb(80, 80, 80);"></path><path class="link" marker-end="" d="M672,628, 612,765" style="stroke-width: 0.5; stroke-opacity: 1; stroke: rgb(80, 80, 80);"></path><path class="link" marker-end="" d="M672,628, 652,765" style="stroke-width: 0.5; stroke-opacity: 1; stroke: rgb(80, 80, 80);"></path><path class="link" marker-end="" d="M672,628, 692,765" style="stroke-width: 0.5; stroke-opacity: 1; stroke: rgb(80, 80, 80);"></path><path class="link" marker-end="" d="M672,628, 732,765" style="stroke-width: 0.5; stroke-opacity: 1; stroke: rgb(80, 80, 80);"></path><path class="link" marker-end="" d="M672,628, 772,765" style="stroke-width: 0.5; stroke-opacity: 1; stroke: rgb(80, 80, 80);"></path><path class="link" marker-end="" d="M672,628, 812,765" style="stroke-width: 0.5; stroke-opacity: 1; stroke: rgb(80, 80, 80);"></path><path class="link" marker-end="" d="M672,628, 852,765" style="stroke-width: 0.5; stroke-opacity: 1; stroke: rgb(80, 80, 80);"></path><path class="link" marker-end="" d="M712,628, 612,765" style="stroke-width: 0.5; stroke-opacity: 1; stroke: rgb(80, 80, 80);"></path><path class="link" marker-end="" d="M712,628, 652,765" style="stroke-width: 0.5; stroke-opacity: 1; stroke: rgb(80, 80, 80);"></path><path class="link" marker-end="" d="M712,628, 692,765" style="stroke-width: 0.5; stroke-opacity: 1; stroke: rgb(80, 80, 80);"></path><path class="link" marker-end="" d="M712,628, 732,765" style="stroke-width: 0.5; stroke-opacity: 1; stroke: rgb(80, 80, 80);"></path><path class="link" marker-end="" d="M712,628, 772,765" style="stroke-width: 0.5; stroke-opacity: 1; stroke: rgb(80, 80, 80);"></path><path class="link" marker-end="" d="M712,628, 812,765" style="stroke-width: 0.5; stroke-opacity: 1; stroke: rgb(80, 80, 80);"></path><path class="link" marker-end="" d="M712,628, 852,765" style="stroke-width: 0.5; stroke-opacity: 1; stroke: rgb(80, 80, 80);"></path><path class="link" marker-end="" d="M752,628, 612,765" style="stroke-width: 0.5; stroke-opacity: 1; stroke: rgb(80, 80, 80);"></path><path class="link" marker-end="" d="M752,628, 652,765" style="stroke-width: 0.5; stroke-opacity: 1; stroke: rgb(80, 80, 80);"></path><path class="link" marker-end="" d="M752,628, 692,765" style="stroke-width: 0.5; stroke-opacity: 1; stroke: rgb(80, 80, 80);"></path><path class="link" marker-end="" d="M752,628, 732,765" style="stroke-width: 0.5; stroke-opacity: 1; stroke: rgb(80, 80, 80);"></path><path class="link" marker-end="" d="M752,628, 772,765" style="stroke-width: 0.5; stroke-opacity: 1; stroke: rgb(80, 80, 80);"></path><path class="link" marker-end="" d="M752,628, 812,765" style="stroke-width: 0.5; stroke-opacity: 1; stroke: rgb(80, 80, 80);"></path><path class="link" marker-end="" d="M752,628, 852,765" style="stroke-width: 0.5; stroke-opacity: 1; stroke: rgb(80, 80, 80);"></path><path class="link" marker-end="" d="M792,628, 612,765" style="stroke-width: 0.5; stroke-opacity: 1; stroke: rgb(80, 80, 80);"></path><path class="link" marker-end="" d="M792,628, 652,765" style="stroke-width: 0.5; stroke-opacity: 1; stroke: rgb(80, 80, 80);"></path><path class="link" marker-end="" d="M792,628, 692,765" style="stroke-width: 0.5; stroke-opacity: 1; stroke: rgb(80, 80, 80);"></path><path class="link" marker-end="" d="M792,628, 732,765" style="stroke-width: 0.5; stroke-opacity: 1; stroke: rgb(80, 80, 80);"></path><path class="link" marker-end="" d="M792,628, 772,765" style="stroke-width: 0.5; stroke-opacity: 1; stroke: rgb(80, 80, 80);"></path><path class="link" marker-end="" d="M792,628, 812,765" style="stroke-width: 0.5; stroke-opacity: 1; stroke: rgb(80, 80, 80);"></path><path class="link" marker-end="" d="M792,628, 852,765" style="stroke-width: 0.5; stroke-opacity: 1; stroke: rgb(80, 80, 80);"></path><path class="link" marker-end="" d="M652,491, 832,628" style="stroke-width: 0.5; stroke-opacity: 1; stroke: rgb(80, 80, 80);"></path><path class="link" marker-end="" d="M652,491, 872,628" style="stroke-width: 0.5; stroke-opacity: 1; stroke: rgb(80, 80, 80);"></path><path class="link" marker-end="" d="M652,491, 912,628" style="stroke-width: 0.5; stroke-opacity: 1; stroke: rgb(80, 80, 80);"></path><path class="link" marker-end="" d="M692,491, 832,628" style="stroke-width: 0.5; stroke-opacity: 1; stroke: rgb(80, 80, 80);"></path><path class="link" marker-end="" d="M692,491, 872,628" style="stroke-width: 0.5; stroke-opacity: 1; stroke: rgb(80, 80, 80);"></path><path class="link" marker-end="" d="M692,491, 912,628" style="stroke-width: 0.5; stroke-opacity: 1; stroke: rgb(80, 80, 80);"></path><path class="link" marker-end="" d="M732,491, 832,628" style="stroke-width: 0.5; stroke-opacity: 1; stroke: rgb(80, 80, 80);"></path><path class="link" marker-end="" d="M732,491, 872,628" style="stroke-width: 0.5; stroke-opacity: 1; stroke: rgb(80, 80, 80);"></path><path class="link" marker-end="" d="M732,491, 912,628" style="stroke-width: 0.5; stroke-opacity: 1; stroke: rgb(80, 80, 80);"></path><path class="link" marker-end="" d="M772,491, 832,628" style="stroke-width: 0.5; stroke-opacity: 1; stroke: rgb(80, 80, 80);"></path><path class="link" marker-end="" d="M772,491, 872,628" style="stroke-width: 0.5; stroke-opacity: 1; stroke: rgb(80, 80, 80);"></path><path class="link" marker-end="" d="M772,491, 912,628" style="stroke-width: 0.5; stroke-opacity: 1; stroke: rgb(80, 80, 80);"></path><path class="link" marker-end="" d="M812,491, 832,628" style="stroke-width: 0.5; stroke-opacity: 1; stroke: rgb(80, 80, 80);"></path><path class="link" marker-end="" d="M812,491, 872,628" style="stroke-width: 0.5; stroke-opacity: 1; stroke: rgb(80, 80, 80);"></path><path class="link" marker-end="" d="M812,491, 912,628" style="stroke-width: 0.5; stroke-opacity: 1; stroke: rgb(80, 80, 80);"></path><path class="link" marker-end="" d="M832,628, 612,765" style="stroke-width: 0.5; stroke-opacity: 1; stroke: rgb(80, 80, 80);"></path><path class="link" marker-end="" d="M832,628, 652,765" style="stroke-width: 0.5; stroke-opacity: 1; stroke: rgb(80, 80, 80);"></path><path class="link" marker-end="" d="M832,628, 692,765" style="stroke-width: 0.5; stroke-opacity: 1; stroke: rgb(80, 80, 80);"></path><path class="link" marker-end="" d="M832,628, 732,765" style="stroke-width: 0.5; stroke-opacity: 1; stroke: rgb(80, 80, 80);"></path><path class="link" marker-end="" d="M832,628, 772,765" style="stroke-width: 0.5; stroke-opacity: 1; stroke: rgb(80, 80, 80);"></path><path class="link" marker-end="" d="M832,628, 812,765" style="stroke-width: 0.5; stroke-opacity: 1; stroke: rgb(80, 80, 80);"></path><path class="link" marker-end="" d="M832,628, 852,765" style="stroke-width: 0.5; stroke-opacity: 1; stroke: rgb(80, 80, 80);"></path><path class="link" marker-end="" d="M872,628, 612,765" style="stroke-width: 0.5; stroke-opacity: 1; stroke: rgb(80, 80, 80);"></path><path class="link" marker-end="" d="M872,628, 652,765" style="stroke-width: 0.5; stroke-opacity: 1; stroke: rgb(80, 80, 80);"></path><path class="link" marker-end="" d="M872,628, 692,765" style="stroke-width: 0.5; stroke-opacity: 1; stroke: rgb(80, 80, 80);"></path><path class="link" marker-end="" d="M872,628, 732,765" style="stroke-width: 0.5; stroke-opacity: 1; stroke: rgb(80, 80, 80);"></path><path class="link" marker-end="" d="M872,628, 772,765" style="stroke-width: 0.5; stroke-opacity: 1; stroke: rgb(80, 80, 80);"></path><path class="link" marker-end="" d="M872,628, 812,765" style="stroke-width: 0.5; stroke-opacity: 1; stroke: rgb(80, 80, 80);"></path><path class="link" marker-end="" d="M872,628, 852,765" style="stroke-width: 0.5; stroke-opacity: 1; stroke: rgb(80, 80, 80);"></path><path class="link" marker-end="" d="M912,628, 612,765" style="stroke-width: 0.5; stroke-opacity: 1; stroke: rgb(80, 80, 80);"></path><path class="link" marker-end="" d="M912,628, 652,765" style="stroke-width: 0.5; stroke-opacity: 1; stroke: rgb(80, 80, 80);"></path><path class="link" marker-end="" d="M912,628, 692,765" style="stroke-width: 0.5; stroke-opacity: 1; stroke: rgb(80, 80, 80);"></path><path class="link" marker-end="" d="M912,628, 732,765" style="stroke-width: 0.5; stroke-opacity: 1; stroke: rgb(80, 80, 80);"></path><path class="link" marker-end="" d="M912,628, 772,765" style="stroke-width: 0.5; stroke-opacity: 1; stroke: rgb(80, 80, 80);"></path><path class="link" marker-end="" d="M912,628, 812,765" style="stroke-width: 0.5; stroke-opacity: 1; stroke: rgb(80, 80, 80);"></path><path class="link" marker-end="" d="M912,628, 852,765" style="stroke-width: 0.5; stroke-opacity: 1; stroke: rgb(80, 80, 80);"></path><path class="link" marker-end="" d="M692,354, 652,491" style="stroke-width: 0.5; stroke-opacity: 1; stroke: rgb(80, 80, 80);"></path><path class="link" marker-end="" d="M732,354, 652,491" style="stroke-width: 0.5; stroke-opacity: 1; stroke: rgb(80, 80, 80);"></path><path class="link" marker-end="" d="M652,491, 552,628" style="stroke-width: 0.5; stroke-opacity: 1; stroke: rgb(80, 80, 80);"></path><path class="link" marker-end="" d="M692,491, 552,628" style="stroke-width: 0.5; stroke-opacity: 1; stroke: rgb(80, 80, 80);"></path><path class="link" marker-end="" d="M732,491, 552,628" style="stroke-width: 0.5; stroke-opacity: 1; stroke: rgb(80, 80, 80);"></path><path class="link" marker-end="" d="M772,491, 552,628" style="stroke-width: 0.5; stroke-opacity: 1; stroke: rgb(80, 80, 80);"></path><path class="link" marker-end="" d="M812,491, 552,628" style="stroke-width: 0.5; stroke-opacity: 1; stroke: rgb(80, 80, 80);"></path><path class="link" marker-end="" d="M772,354, 652,491" style="stroke-width: 0.5; stroke-opacity: 1; stroke: rgb(80, 80, 80);"></path><path class="link" marker-end="" d="M772,354, 692,491" style="stroke-width: 0.5; stroke-opacity: 1; stroke: rgb(80, 80, 80);"></path><path class="link" marker-end="" d="M772,354, 732,491" style="stroke-width: 0.5; stroke-opacity: 1; stroke: rgb(80, 80, 80);"></path><path class="link" marker-end="" d="M772,354, 772,491" style="stroke-width: 0.5; stroke-opacity: 1; stroke: rgb(80, 80, 80);"></path><path class="link" marker-end="" d="M772,354, 812,491" style="stroke-width: 0.5; stroke-opacity: 1; stroke: rgb(80, 80, 80);"></path><circle r="11.5" class="node" id="0_0" cx="692" cy="354" style="fill: rgb(255, 255, 255); stroke: rgb(51, 51, 51);"></circle><circle r="11.5" class="node" id="0_1" cx="732" cy="354" style="fill: rgb(255, 255, 255); stroke: rgb(51, 51, 51);"></circle><circle r="11.5" class="node" id="0_2" cx="772" cy="354" style="fill: rgb(255, 255, 255); stroke: rgb(51, 51, 51);"></circle><circle r="11.5" class="node" id="1_0" cx="652" cy="491" style="fill: rgb(255, 255, 255); stroke: rgb(51, 51, 51);"></circle><circle r="11.5" class="node" id="1_1" cx="692" cy="491" style="fill: rgb(255, 255, 255); stroke: rgb(51, 51, 51);"></circle><circle r="11.5" class="node" id="1_2" cx="732" cy="491" style="fill: rgb(255, 255, 255); stroke: rgb(51, 51, 51);"></circle><circle r="11.5" class="node" id="1_3" cx="772" cy="491" style="fill: rgb(255, 255, 255); stroke: rgb(51, 51, 51);"></circle><circle r="11.5" class="node" id="1_4" cx="812" cy="491" style="fill: rgb(255, 255, 255); stroke: rgb(51, 51, 51);"></circle><circle r="11.5" class="node" id="2_0" cx="552" cy="628" style="fill: rgb(255, 255, 255); stroke: rgb(51, 51, 51);"></circle><text class="text" dy=".35em" x="952" y="354" style="font-size: 12px;"></text><text class="text" dy=".35em" x="952" y="491" style="font-size: 12px;"></text><text class="text" dy=".35em" x="952" y="628" style="font-size: 12px;"></text><circle r="11.5" class="node" id="2_1" cx="592" cy="628" style="fill: rgb(255, 255, 255); stroke: rgb(51, 51, 51);"></circle><circle r="11.5" class="node" id="2_2" cx="632" cy="628" style="fill: rgb(255, 255, 255); stroke: rgb(51, 51, 51);"></circle><circle r="11.5" class="node" id="2_3" cx="672" cy="628" style="fill: rgb(255, 255, 255); stroke: rgb(51, 51, 51);"></circle><circle r="11.5" class="node" id="2_4" cx="712" cy="628" style="fill: rgb(255, 255, 255); stroke: rgb(51, 51, 51);"></circle><circle r="11.5" class="node" id="2_5" cx="752" cy="628" style="fill: rgb(255, 255, 255); stroke: rgb(51, 51, 51);"></circle><circle r="11.5" class="node" id="2_6" cx="792" cy="628" style="fill: rgb(255, 255, 255); stroke: rgb(51, 51, 51);"></circle><circle r="11.5" class="node" id="2_7" cx="832" cy="628" style="fill: rgb(255, 255, 255); stroke: rgb(51, 51, 51);"></circle><circle r="11.5" class="node" id="2_8" cx="872" cy="628" style="fill: rgb(255, 255, 255); stroke: rgb(51, 51, 51);"></circle><circle r="11.5" class="node" id="2_9" cx="912" cy="628" style="fill: rgb(255, 255, 255); stroke: rgb(51, 51, 51);"></circle><circle r="11.5" class="node" id="3_0" cx="612" cy="765" style="fill: rgb(255, 255, 255); stroke: rgb(51, 51, 51);"></circle><circle r="11.5" class="node" id="3_1" cx="652" cy="765" style="fill: rgb(255, 255, 255); stroke: rgb(51, 51, 51);"></circle><circle r="11.5" class="node" id="3_2" cx="692" cy="765" style="fill: rgb(255, 255, 255); stroke: rgb(51, 51, 51);"></circle><circle r="11.5" class="node" id="3_3" cx="732" cy="765" style="fill: rgb(255, 255, 255); stroke: rgb(51, 51, 51);"></circle><circle r="11.5" class="node" id="3_4" cx="772" cy="765" style="fill: rgb(255, 255, 255); stroke: rgb(51, 51, 51);"></circle><circle r="11.5" class="node" id="3_5" cx="812" cy="765" style="fill: rgb(255, 255, 255); stroke: rgb(51, 51, 51);"></circle><circle r="11.5" class="node" id="3_6" cx="852" cy="765" style="fill: rgb(255, 255, 255); stroke: rgb(51, 51, 51);"></circle><text class="text" dy=".35em" x="952" y="765" style="font-size: 12px;"></text></g><defs><marker id="arrow" viewBox="0 -5 10 10" markerWidth="7" markerHeight="7" orient="auto" refX="44.199999999999996"><path d="M0,-5L10,0L0,5" style="stroke: rgb(80, 80, 80); fill: none;"></path></marker></defs></svg>